<svg width="190" height="41" viewBox="0 0 190 41" fill="none" xmlns="http://www.w3.org/2000/svg">
<g clip-path="url(#clip0_6189:60214)">
<path d="M0 35.1415V41H24.9553V35.1415H0Z" fill="#00AEEF"/>
<path d="M18.1147 11.4458H6.83106V0.0436211C4.50574 0.196159 2.20988 0.644264 0 1.37691V29.9221H0.440466C2.60746 29.7924 4.75196 29.4144 6.83106 28.7956V17.3668H18.1147V29.8994C20.4419 29.7401 22.7386 29.2837 24.9476 28.5414V0C22.6322 0.0992089 20.3377 0.477518 18.1147 1.12656V11.4458Z" fill="#001F49"/>
<path d="M49.0043 17.0558C49.0043 11.8914 46.7063 7.61658 39.385 7.61658C35.3844 7.61658 32.3719 8.72983 30.8437 9.57575L32.1019 13.9378C33.5402 13.0483 35.9225 12.2916 38.1708 12.2916C41.5432 12.2916 42.1714 13.9378 42.1714 15.1365V15.402C34.3943 15.402 29.2695 18.0723 29.2695 23.7279C29.2695 27.2005 31.9219 30.4038 36.3726 30.4038C38.979 30.4038 41.2273 29.4688 42.6655 27.7335H42.8015L43.2055 29.9145H43.2477C45.2613 29.7918 47.2563 29.4593 49.1997 28.9226C49.0551 27.5074 48.9912 26.0853 49.0082 24.6629V17.0558H49.0043ZM42.3954 22.0001C42.398 22.3897 42.353 22.7782 42.2614 23.157C42.0018 23.8848 41.5212 24.5151 40.8855 24.9616C40.2498 25.4081 39.4902 25.6489 38.7108 25.651C37.1788 25.651 36.0125 24.8052 36.0125 23.0679C36.0125 20.4867 38.8008 19.6408 42.3954 19.6408V22.0001Z" fill="#001F49"/>
<path d="M60.5618 12.1589H60.3818L60.1137 8.19317C58.157 8.32535 56.2195 8.65779 54.332 9.1851C54.4182 10.8086 54.447 12.6899 54.447 15.3186V29.9221H61.2837V18.8803C61.2801 18.3715 61.3256 17.8633 61.4197 17.3631C61.8583 15.2749 63.5818 13.9398 66.0906 13.9398C66.7088 13.9437 67.3255 14.0034 67.9329 14.118V7.75128C67.4597 7.6558 66.9775 7.6107 66.4946 7.6166C64.3383 7.6166 61.684 8.95369 60.5579 12.1684L60.5618 12.1589Z" fill="#001F49"/>
<path d="M82.861 12.872C84.659 12.872 85.8729 13.183 86.6814 13.5396L87.7595 8.50796C86.3211 7.96558 84.3451 7.66211 82.5408 7.66211C74.3575 7.66211 69.9531 12.872 69.9531 19.2312C69.9531 26.0417 74.494 30.3621 81.5965 30.3621C84.203 30.3621 86.4956 29.9145 87.7095 29.3361L86.8996 24.35C85.8672 24.7957 84.6013 25.0631 82.9891 25.0631C79.6627 25.0631 76.9661 22.9257 76.9661 18.9637C76.9204 15.402 79.2644 12.8663 82.8547 12.8663L82.861 12.872Z" fill="#001F49"/>
<path d="M101.563 7.61666C94.4599 7.61666 89.7852 12.1134 89.7852 19.1857C89.7852 26.2201 94.7301 30.4039 101.159 30.4039C107.048 30.4039 112.757 26.7549 112.757 18.7855C112.757 12.1988 108.262 7.61096 101.563 7.61096V7.61666ZM101.337 25.5582C98.4168 25.5582 96.8426 22.755 96.8426 19.0131C96.8426 15.8098 98.1008 12.4699 101.337 12.4699C104.439 12.4699 105.699 15.7643 105.699 18.9695C105.699 22.9314 104.035 25.5582 101.337 25.5582Z" fill="#001F49"/>
<path d="M137.709 8.15527H130.876V21.1107C130.896 22.1014 130.52 23.0597 129.829 23.7768C129.139 24.4937 128.19 24.9111 127.19 24.938C124.761 24.938 123.729 23.0244 123.729 19.8647V8.15527H116.895V20.9325C116.895 27.6539 120.133 30.4153 124.625 30.4153C128.582 30.4153 130.651 28.1906 131.504 26.8554H131.641L131.954 29.9279H132.605C134.376 29.8168 136.132 29.547 137.853 29.1218C137.776 27.4301 137.709 25.3932 137.709 22.9371V8.15527Z" fill="#001F49"/>
<path d="M149.312 12.1589H149.131L148.863 8.17608C146.908 8.29602 144.969 8.61374 143.078 9.12436C143.166 10.7592 143.197 12.652 143.197 15.3091V29.9127H150.03V18.8803C150.026 18.3715 150.072 17.8633 150.166 17.3631C150.615 15.2769 152.324 13.936 154.841 13.936C155.458 13.9398 156.076 13.9995 156.683 14.1143V7.75128C156.209 7.6558 155.727 7.6107 155.244 7.6166C153.088 7.6166 150.436 8.95369 149.308 12.1684L149.312 12.1589Z" fill="#001F49"/>
<path d="M165.811 1.89661C163.544 1.98148 161.295 2.32902 159.109 2.93213V22.0419C159.109 25.1125 159.739 27.2063 160.997 28.4903C162.121 29.6017 163.966 30.3603 166.168 30.3603C168.056 30.3603 169.721 30.091 170.573 29.7799L170.527 24.6592C169.862 24.7984 169.183 24.8576 168.505 24.8356C166.48 24.8356 165.806 23.6351 165.806 21.0083V13.1394H170.706V8.15529H165.811V1.89661Z" fill="#001F49"/>
<path d="M184.067 16.6101C181.369 15.6751 180.515 15.1422 180.515 14.0725C180.515 13.0028 181.459 12.3372 183.123 12.3372C184.965 12.3372 186.9 13.0484 187.886 13.5832L189.056 8.91388C187.706 8.24628 185.46 7.62231 182.897 7.62231C177.458 7.62231 173.952 10.6947 173.952 14.7913C173.908 17.3725 175.66 19.8211 180.245 21.3345C182.763 22.1804 183.438 22.7152 183.438 23.8721C183.438 24.9854 182.583 25.653 180.515 25.653C178.493 25.653 175.884 24.8071 174.626 24.0504L173.414 28.8582C175.076 29.7496 177.638 30.4153 180.515 30.4153C186.81 30.4153 190 27.4339 190 23.3373C189.955 20.1776 188.248 18.0401 184.064 16.6158L184.067 16.6101Z" fill="#001F49"/>
</g>
<defs>
<clipPath id="clip0_6189:60214">
<rect width="190" height="41" fill="white"/>
</clipPath>
</defs>
</svg>
